<?xml version="1.0" standalone="no"?>
<!DOCTYPE svg PUBLIC "-//W3C//DTD SVG 20010904//EN"
 "http://www.w3.org/TR/2001/REC-SVG-20010904/DTD/svg10.dtd">
<svg version="1.0" xmlns="http://www.w3.org/2000/svg"
 width="512.000000pt" height="512.000000pt" viewBox="0 0 512.000000 512.000000"
 preserveAspectRatio="xMidYMid meet">
<metadata>
Created by potrace 1.14, written by Peter Selinger 2001-2017
</metadata>
<g transform="translate(0.000000,512.000000) scale(0.100000,-0.100000)"
fill="#000000" stroke="none">
<path d="M2437 4643 c-1 -1 -33 -4 -72 -7 -183 -16 -396 -67 -575 -138 -105
-42 -271 -124 -322 -159 -14 -11 -29 -19 -32 -19 -4 0 -12 -5 -19 -10 -7 -6
-58 -44 -115 -86 -115 -85 -289 -252 -374 -359 -116 -146 -222 -320 -283 -465
-15 -36 -33 -78 -40 -95 -53 -125 -112 -376 -131 -560 -7 -65 -7 -315 0 -385
48 -481 256 -926 591 -1266 353 -359 797 -570 1305 -620 64 -7 304 -6 370 0
121 12 148 17 354 61 11 3 49 14 85 26 277 90 519 224 736 408 125 107 357
374 406 469 8 15 24 42 36 60 82 124 206 439 238 607 37 192 49 301 49 450 0
79 -13 265 -19 275 -1 3 -5 28 -9 55 -7 57 -8 63 -30 160 -107 460 -403 904
-791 1190 -313 229 -687 371 -1063 402 -63 5 -292 10 -295 6z"/>
</g>
</svg>
